<svg xmlns="http://www.w3.org/2000/svg" xmlns:xlink="http://www.w3.org/1999/xlink" width="500" zoomAndPan="magnify" viewBox="0 0 375 374.999991" height="500" preserveAspectRatio="xMidYMid meet" version="1.0"><defs><filter x="0%" y="0%" width="100%" height="100%" id="e24cf14cc1"><feColorMatrix values="0 0 0 0 1 0 0 0 0 1 0 0 0 0 1 0 0 0 1 0" color-interpolation-filters="sRGB"/></filter><clipPath id="21ecab4e23"><path d="M 62 13.585938 L 314.578125 13.585938 L 314.578125 330 L 62 330 Z M 62 13.585938 " clip-rule="nonzero"/></clipPath><mask id="00669f8634"><g filter="url(#e24cf14cc1)"><rect x="-37.5" width="450" fill="#000000" y="-37.499999" height="449.999989" fill-opacity="0.14"/></g></mask><clipPath id="ae3e28c458"><path d="M 0.398438 0.96875 L 252.578125 0.96875 L 252.578125 316.960938 L 0.398438 316.960938 Z M 0.398438 0.96875 " clip-rule="nonzero"/></clipPath><clipPath id="2a527c0320"><rect x="0" width="253" y="0" height="317"/></clipPath></defs><g clip-path="url(#21ecab4e23)"><path fill="#1a1919" d="M 313.667969 157.414062 C 314.359375 151.398438 314.625 145.351562 314.625 139.464844 C 314.625 69.945312 258.269531 13.585938 188.757812 13.585938 C 134.988281 13.585938 85.898438 49.074219 69.128906 100.191406 C 61.714844 122.785156 60.382812 147.71875 66.066406 170.855469 C 68.964844 182.667969 73.765625 194.046875 80.625 204.117188 C 84.160156 209.300781 87.363281 210.871094 92.109375 214.289062 C 97.207031 217.957031 100.199219 224.472656 101.710938 230.378906 C 103.804688 238.515625 103.660156 247.695312 103.070312 256.164062 C 102.839844 259.472656 102.597656 262.882812 103.667969 266.023438 C 104.75 269.15625 107.519531 271.96875 110.828125 271.992188 C 113.96875 272.019531 116.695312 269.527344 117.878906 266.625 C 119.050781 263.71875 118.992188 260.46875 118.765625 257.34375 C 118.425781 252.710938 117.792969 248.015625 117.710938 243.378906 C 117.632812 239.539062 117.921875 235.738281 119.070312 232.066406 C 121.59375 223.96875 130.222656 216.910156 138.21875 219.75 C 143.875 221.75 147.03125 227.769531 148.746094 233.527344 C 150.972656 240.972656 151.710938 248.859375 151.472656 256.367188 C 151.386719 257.457031 151.296875 258.542969 151.210938 259.632812 C 149.792969 277.09375 148.382812 294.554688 146.964844 312.003906 C 146.652344 315.882812 146.363281 319.933594 147.859375 323.523438 C 149.355469 327.109375 153.246094 330.023438 157.011719 329.050781 C 161.867188 327.800781 163.234375 321.613281 163.335938 316.597656 C 163.679688 298.511719 159.535156 279.898438 160.226562 262.082031 C 160.515625 254.550781 161.671875 247.15625 164.390625 240.011719 C 167.144531 232.792969 172.207031 225.609375 179.757812 223.960938 C 193.554688 220.957031 197.117188 234.203125 207.972656 234.777344 C 221.785156 235.503906 222.613281 221.472656 235.183594 221.472656 C 245.121094 221.472656 252.695312 231.289062 254.46875 241.023438 C 254.796875 242.816406 255.050781 244.585938 255.246094 246.351562 C 257.375 265.003906 252.949219 282.386719 251.546875 303.519531 C 251.234375 308.179688 253.109375 321.679688 262.996094 321.714844 C 269.488281 321.730469 272.859375 313.769531 272.859375 302.320312 C 272.859375 290.425781 266.15625 269.488281 267.285156 246.925781 C 267.414062 244.488281 267.4375 241.09375 267.777344 237.4375 C 268.386719 230.808594 269.683594 224.101562 274.566406 219.507812 C 280.371094 214.046875 287.429688 210.039062 293.203125 204.5 C 306.101562 192.128906 311.664062 174.898438 313.667969 157.414062 Z M 313.667969 157.414062 " fill-opacity="1" fill-rule="nonzero"/></g><g mask="url(#00669f8634)"><g transform="matrix(1, 0, 0, 1, 62, 44)"><g clip-path="url(#2a527c0320)"><g clip-path="url(#ae3e28c458)"><path fill="#1a1919" d="M 251.667969 144.796875 C 252.359375 138.78125 252.625 132.734375 252.625 126.847656 C 252.625 57.328125 196.269531 0.96875 126.757812 0.96875 C 72.988281 0.96875 23.898438 36.457031 7.128906 87.570312 C -0.285156 110.167969 -1.617188 135.101562 4.066406 158.238281 C 6.964844 170.050781 11.765625 181.429688 18.625 191.5 C 22.160156 196.683594 25.363281 198.253906 30.109375 201.671875 C 35.207031 205.339844 38.199219 211.855469 39.710938 217.761719 C 41.804688 225.898438 41.660156 235.078125 41.070312 243.546875 C 40.839844 246.855469 40.597656 250.265625 41.667969 253.40625 C 42.75 256.539062 45.519531 259.351562 48.828125 259.375 C 51.96875 259.402344 54.695312 256.910156 55.878906 254.007812 C 57.050781 251.101562 56.992188 247.851562 56.765625 244.726562 C 56.425781 240.09375 55.792969 235.398438 55.710938 230.761719 C 55.632812 226.921875 55.921875 223.121094 57.070312 219.449219 C 59.59375 211.351562 68.222656 204.292969 76.21875 207.132812 C 81.875 209.132812 85.03125 215.152344 86.746094 220.910156 C 88.972656 228.355469 89.710938 236.242188 89.472656 243.75 C 89.386719 244.835938 89.296875 245.925781 89.210938 247.015625 C 87.792969 264.476562 86.382812 281.9375 84.964844 299.386719 C 84.652344 303.261719 84.363281 307.316406 85.859375 310.90625 C 87.355469 314.492188 91.246094 317.40625 95.011719 316.433594 C 99.867188 315.183594 101.234375 308.996094 101.335938 303.980469 C 101.679688 285.894531 97.535156 267.277344 98.226562 249.464844 C 98.515625 241.933594 99.671875 234.535156 102.390625 227.394531 C 105.144531 220.175781 110.207031 212.992188 117.757812 211.34375 C 131.554688 208.339844 135.117188 221.585938 145.972656 222.160156 C 159.785156 222.886719 160.613281 208.851562 173.183594 208.851562 C 183.121094 208.851562 190.695312 218.671875 192.46875 228.40625 C 192.796875 230.199219 193.050781 231.96875 193.246094 233.734375 C 195.375 252.386719 190.949219 269.769531 189.546875 290.902344 C 189.234375 295.5625 191.109375 309.0625 200.996094 309.097656 C 207.488281 309.113281 210.859375 301.152344 210.859375 289.703125 C 210.859375 277.808594 204.15625 256.867188 205.285156 234.308594 C 205.414062 231.871094 205.4375 228.476562 205.777344 224.820312 C 206.386719 218.191406 207.683594 211.484375 212.566406 206.890625 C 218.371094 201.429688 225.429688 197.421875 231.203125 191.882812 C 244.101562 179.511719 249.664062 162.277344 251.667969 144.796875 Z M 251.667969 144.796875 " fill-opacity="1" fill-rule="nonzero"/></g></g></g></g></svg>